<?xml version="1.0" standalone="no"?>
<!DOCTYPE svg PUBLIC "-//W3C//DTD SVG 20010904//EN"
 "http://www.w3.org/TR/2001/REC-SVG-20010904/DTD/svg10.dtd">
<svg version="1.0" xmlns="http://www.w3.org/2000/svg"
 width="414.000000pt" height="533.000000pt" viewBox="0 0 414.000000 533.000000"
 preserveAspectRatio="xMidYMid meet">
<metadata>
Created by potrace 1.16, written by Peter Selinger 2001-2019
</metadata>
<g transform="translate(0.000000,533.000000) scale(0.100000,-0.100000)"
fill="#000000" stroke="none">
<path d="M1975 4860 c-11 -5 -47 -9 -81 -9 -57 -1 -148 -24 -169 -42 -5 -5
-17 -9 -26 -9 -9 0 -22 -6 -28 -14 -6 -8 -32 -19 -57 -25 -25 -7 -58 -19 -72
-28 -42 -26 -221 -171 -277 -223 -27 -26 -64 -55 -81 -65 -16 -9 -39 -30 -50
-46 -10 -16 -22 -29 -26 -29 -5 0 -8 -6 -8 -13 0 -8 -18 -39 -40 -71 -22 -31
-40 -62 -40 -67 0 -6 -11 -29 -24 -52 -14 -23 -28 -60 -32 -82 -4 -22 -17 -67
-29 -100 -32 -85 -53 -234 -35 -245 11 -7 11 -16 0 -54 -9 -32 -11 -73 -6
-129 8 -101 20 -145 57 -220 16 -33 26 -63 23 -68 -3 -5 -20 -7 -38 -4 -23 5
-38 1 -54 -12 -20 -16 -24 -31 -29 -113 -15 -222 -13 -234 41 -345 27 -55 53
-101 57 -103 5 -2 9 -10 9 -18 0 -25 18 -6 30 31 10 32 9 37 -13 57 -52 48
-64 132 -42 308 4 32 4 33 -6 10 -6 -14 -12 -30 -13 -37 -6 -34 -17 -22 -15
17 3 59 8 70 26 63 12 -5 14 -1 9 15 -10 30 8 35 35 8 71 -70 107 -126 80
-126 -5 0 -30 -19 -55 -43 -45 -42 -46 -44 -46 -104 0 -44 5 -66 16 -75 8 -7
24 -20 34 -30 10 -9 21 -14 24 -11 9 10 36 -18 36 -38 0 -10 8 -22 17 -28 14
-7 15 -12 4 -25 -11 -13 -10 -18 5 -33 10 -10 19 -17 21 -15 2 1 10 -1 19 -6
12 -7 13 -14 5 -35 -9 -24 -8 -27 12 -27 31 0 42 -11 44 -44 1 -16 11 -46 22
-66 12 -24 18 -49 15 -69 -4 -21 -1 -31 8 -31 9 0 9 -3 -2 -10 -13 -8 -12 -10
3 -10 9 0 17 -5 17 -11 0 -5 -4 -7 -10 -4 -7 4 -7 -2 -1 -18 6 -14 7 -28 4
-31 -6 -5 10 -10 28 -8 3 1 6 -6 6 -13 0 -11 -4 -12 -14 -4 -7 7 -13 7 -13 2
0 -19 38 -119 65 -173 25 -49 29 -71 37 -195 10 -170 21 -219 66 -310 44 -89
187 -318 260 -415 101 -137 281 -347 328 -383 41 -32 53 -36 129 -42 l84 -7
68 53 c178 140 381 389 496 609 111 211 112 217 108 591 -1 97 3 187 8 201 7
18 6 29 -2 38 -9 10 -9 11 1 6 15 -9 16 10 1 19 -6 4 -17 -1 -25 -11 -14 -17
-15 -17 -10 -1 3 9 1 17 -5 17 -6 0 -8 4 -5 8 2 4 -4 8 -15 8 -18 0 -18 -2 -5
-12 9 -6 15 -22 15 -35 -1 -17 -3 -19 -6 -7 -4 15 -7 14 -28 -8 -13 -14 -22
-33 -19 -42 3 -9 -1 -7 -7 6 -7 12 -16 22 -21 22 -5 0 -7 4 -4 9 3 5 -1 11 -9
14 -11 5 -13 -1 -10 -24 3 -27 2 -29 -12 -17 -15 12 -16 10 -9 -15 6 -25 5
-27 -8 -15 -13 11 -13 16 0 35 8 13 10 23 4 23 -5 0 -10 7 -10 16 0 8 4 12 10
9 6 -3 7 1 4 9 -3 9 -1 16 5 16 6 0 11 -4 11 -8 0 -5 7 -9 15 -9 8 0 15 6 15
13 0 8 -6 11 -14 8 -8 -3 -17 0 -22 7 -5 8 -3 10 7 5 8 -4 6 -1 -5 8 -10 8
-15 20 -11 27 6 8 12 6 24 -8 16 -20 16 -20 34 -2 12 14 13 19 4 19 -8 0 -14
7 -14 15 0 10 4 12 12 5 8 -7 12 -5 12 5 0 8 -6 15 -14 15 -7 0 -13 7 -13 15
0 17 21 20 36 5 7 -7 11 -6 11 4 0 8 -4 13 -9 10 -4 -3 -9 7 -9 23 -2 24 -2
25 -6 5 -2 -12 -9 -20 -14 -16 -5 3 -6 11 -2 17 4 7 0 6 -10 -2 -15 -11 -17
-11 -17 2 0 8 9 17 20 20 11 3 20 11 20 19 0 10 -2 10 -10 -2 -11 -17 -18 -12
-23 18 -2 12 -9 28 -17 35 -10 9 -11 9 -6 0 5 -8 1 -13 -10 -13 -16 0 -16 -1
2 -16 10 -8 14 -13 7 -10 -6 4 -14 2 -18 -3 -8 -14 -36 -2 -29 13 2 6 -3 1
-12 -11 -21 -29 -38 -30 -24 -2 14 25 10 29 -25 33 -31 3 -74 51 -75 83 0 12
-5 25 -10 28 -6 4 -8 11 -5 16 4 5 1 9 -5 9 -6 0 -8 5 -5 10 3 6 1 10 -5 10
-6 0 -8 5 -5 10 4 6 3 10 -2 9 -23 -4 -32 2 -26 18 5 13 2 15 -11 10 -9 -4
-15 -3 -12 2 8 13 -15 29 -49 33 -18 2 -29 8 -27 16 1 8 -2 11 -8 7 -12 -7
-14 -45 -2 -45 4 0 15 -20 24 -44 13 -36 14 -52 6 -80 -6 -20 -16 -36 -22 -35
-26 3 -47 -2 -42 -9 3 -5 -8 -6 -25 -4 -16 2 -29 8 -29 12 0 5 -10 6 -22 3
-21 -4 -21 -3 5 17 35 28 34 36 -4 49 -44 15 -74 14 -89 -4 -9 -11 -9 -15 -1
-15 7 0 10 -4 7 -9 -4 -5 3 -7 14 -4 15 4 20 0 20 -16 0 -18 -3 -20 -19 -12
-10 6 -21 7 -25 4 -11 -11 -77 -13 -71 -3 4 6 -9 11 -27 12 -45 2 -50 1 -70
-7 -15 -6 -18 -2 -18 19 0 31 -42 57 -83 49 -15 -3 -34 0 -42 7 -25 21 -30 2
-10 -38 28 -54 29 -55 17 -48 -6 3 -13 2 -16 -2 -3 -5 -17 -8 -32 -6 -19 2
-24 -1 -20 -12 3 -8 1 -14 -4 -14 -6 0 -9 -6 -8 -12 3 -14 -4 -14 -39 -3 -13
3 -23 2 -23 -3 0 -5 -11 -7 -25 -4 -15 2 -25 0 -25 -7 0 -6 -3 -10 -7 -9 -13
3 -67 -26 -76 -39 -4 -7 -15 -13 -23 -13 -8 0 -13 -3 -10 -8 2 -4 -11 -7 -30
-6 -25 2 -37 -3 -45 -17 -12 -23 -25 -24 -33 -3 -6 15 -4 15 10 3 16 -13 16
-12 5 9 -10 19 -15 20 -32 11 -12 -6 -30 -9 -40 -6 -10 3 -17 2 -15 -2 3 -4 1
-13 -5 -21 -7 -12 -9 -11 -10 5 -1 11 -1 24 0 28 1 5 -3 6 -8 2 -6 -3 -7 -13
-4 -22 4 -11 2 -14 -8 -11 -9 3 -13 17 -12 36 1 18 -3 32 -8 32 -5 0 -8 -6 -7
-12 2 -7 -4 -12 -12 -10 -11 2 -10 -1 3 -12 10 -8 14 -17 9 -20 -5 -3 -15 6
-22 19 -10 19 -10 27 -1 39 9 11 9 16 0 22 -8 4 -9 3 -5 -4 5 -8 -3 -12 -23
-12 -17 0 -31 5 -31 11 0 5 -4 7 -10 4 -5 -3 -10 -2 -10 3 0 13 30 20 74 17
38 -2 41 1 26 25 -6 10 -10 11 -10 3 0 -7 -7 -13 -16 -13 -10 0 -14 6 -10 15
3 8 1 15 -4 15 -5 0 -5 13 0 30 5 18 5 28 0 25 -5 -3 -15 3 -22 15 -7 11 -20
20 -28 21 -11 0 -9 3 4 8 16 6 16 9 4 22 -7 8 -13 21 -13 29 1 8 -2 22 -6 31
-9 18 -22 108 -23 162 0 20 -5 37 -10 37 -5 0 -6 3 -3 6 3 4 2 15 -3 25 -7 12
-6 20 1 25 8 5 6 12 -7 22 -13 10 -15 16 -6 19 6 3 9 10 5 16 -11 18 -12 38
-2 31 5 -3 8 8 7 25 -1 17 -7 31 -13 31 -5 0 -5 4 2 8 7 4 13 22 15 40 1 18 7
37 14 43 6 5 9 20 6 34 -3 17 1 27 12 31 9 3 13 10 10 15 -3 5 -10 7 -15 3 -5
-3 2 12 16 33 31 45 40 54 32 31 -4 -11 -2 -17 6 -15 7 1 11 -4 10 -10 -3 -15
14 -18 19 -4 2 5 17 13 33 16 29 7 29 7 10 -8 -17 -14 -17 -16 -4 -17 9 0 33
7 52 15 43 18 86 20 50 3 -13 -6 -23 -15 -23 -19 0 -4 -9 -6 -20 -4 -11 2 -20
0 -20 -4 0 -5 -12 -16 -26 -26 -15 -9 -23 -12 -20 -6 4 6 2 11 -3 11 -12 0
-13 -8 -16 -87 -2 -29 1 -50 6 -47 5 3 9 -2 9 -11 0 -13 6 -16 23 -11 16 4 26
-1 35 -15 9 -15 17 -18 25 -10 8 6 18 6 27 1 8 -6 28 -10 43 -10 16 0 26 -4
22 -10 -3 -5 -1 -10 4 -10 6 0 11 5 11 11 0 7 9 9 21 6 17 -5 18 -3 8 9 -6 8
-9 17 -5 21 3 3 6 1 6 -5 0 -6 17 -11 40 -10 23 0 44 -2 47 -6 10 -10 -18 -36
-41 -37 -17 -1 -17 -2 -3 -6 9 -2 17 -12 17 -20 0 -9 3 -13 7 -10 3 4 11 3 18
-3 6 -5 29 -11 50 -13 27 -3 41 -10 43 -21 3 -12 8 -14 23 -6 15 9 19 7 19 -7
0 -11 3 -14 8 -7 6 10 43 27 50 24 2 -1 14 6 28 14 13 9 24 13 24 10 0 -4 15
9 34 28 19 20 37 34 40 31 13 -13 23 109 13 153 -6 23 -3 35 12 53 14 16 18
29 12 39 -5 8 -6 22 -4 31 3 11 -7 22 -32 34 -20 9 -40 17 -46 17 -5 0 -19 9
-31 20 -12 10 -25 17 -29 14 -4 -2 -11 1 -16 8 -8 13 -80 36 -133 43 -14 2
-38 6 -55 9 -27 5 -27 5 -5 -3 24 -9 24 -9 -8 -10 -20 -1 -31 3 -27 9 6 10 0
11 -62 13 -17 1 -29 5 -27 9 3 4 -1 8 -8 8 -10 0 -9 3 2 10 16 10 9 14 -35 23
-11 2 -19 10 -17 17 3 10 -2 9 -17 -4 -11 -10 -25 -15 -32 -10 -7 4 -10 3 -6
-3 4 -6 1 -16 -7 -22 -10 -9 -13 -6 -12 14 1 14 6 29 12 35 6 6 8 27 5 48 -4
20 -2 64 4 97 10 54 15 63 55 94 l45 33 90 -7 c166 -14 311 -7 325 15 3 5 34
11 69 15 37 4 61 2 57 -3 -3 -5 11 -6 34 -2 27 5 40 4 40 -4 0 -7 3 -7 8 1 5
8 13 9 22 3 21 -13 38 -12 20 1 -12 8 -10 9 10 5 14 -3 36 -8 50 -11 24 -5 24
-5 3 4 -13 6 -23 15 -23 20 0 14 48 23 68 12 10 -5 24 -9 32 -9 8 1 26 0 39 0
21 -2 22 -4 10 -19 -13 -15 -12 -15 10 -4 21 12 53 16 139 20 18 0 31 5 28 10
-3 5 8 11 24 13 17 3 30 1 30 -4 0 -4 9 -8 19 -8 11 0 22 -3 24 -7 3 -5 -16
-6 -41 -4 -26 2 -45 1 -42 -2 10 -10 192 -16 210 -7 15 8 18 4 24 -30 4 -24
14 -45 26 -52 14 -9 18 -19 13 -37 -4 -15 -2 -22 5 -18 9 6 36 -75 37 -111 0
-7 6 -17 14 -21 8 -5 10 -14 6 -21 -5 -9 -4 -11 3 -6 12 7 16 -4 13 -36 -1
-10 2 -18 7 -18 10 0 13 -18 12 -75 0 -30 2 -36 10 -25 8 13 10 13 10 -2 0 -9
-5 -20 -11 -23 -7 -5 -5 -13 6 -25 12 -13 17 -39 18 -89 1 -39 5 -71 8 -71 3
0 6 -6 7 -12 24 -252 32 -418 20 -418 -6 0 -8 -11 -6 -25 3 -13 1 -22 -3 -19
-5 3 -9 0 -9 -5 0 -17 4 -26 11 -24 9 3 7 -31 -3 -44 -6 -8 -2 -11 16 -9 14 2
23 0 21 -5 -3 -4 0 -11 6 -15 9 -5 10 1 5 20 -5 21 -1 33 21 57 15 16 32 29
36 29 4 0 19 12 32 26 22 23 25 37 25 96 0 61 -2 70 -22 79 -13 6 -34 24 -47
41 -20 25 -22 34 -13 49 7 10 12 27 12 38 0 11 17 33 38 51 32 26 37 28 41 13
2 -10 8 -21 13 -24 15 -10 22 -187 10 -264 -9 -57 -17 -75 -41 -96 -25 -23
-27 -30 -17 -50 26 -51 38 -30 91 155 22 78 26 107 24 223 -1 117 -3 134 -16
128 -13 -4 -13 -3 -4 8 9 11 8 17 -5 28 -18 15 -17 31 16 183 18 82 21 120 17
222 -3 68 -8 128 -12 134 -12 19 -36 223 -30 251 3 15 -3 63 -15 108 -19 75
-19 83 -4 106 15 23 15 26 -8 55 -12 17 -34 41 -47 53 -42 37 -91 92 -91 100
0 44 -262 247 -319 247 -8 0 -44 13 -80 29 -77 33 -128 46 -266 65 -55 8 -111
18 -125 24 -76 30 -219 48 -255 32z m-405 -1645 c0 -46 37 -85 80 -85 37 0 90
47 90 79 0 12 4 21 9 21 15 0 41 -42 41 -67 0 -18 -8 -23 -52 -32 -96 -20
-171 -17 -211 8 -45 28 -47 51 -6 85 41 34 49 33 49 -9z m737 -1005 c21 -16
35 -20 59 -15 37 6 59 -13 25 -22 -12 -3 -21 -10 -21 -16 0 -5 -8 -16 -17 -24
-12 -10 -13 -12 -3 -8 8 4 6 0 -4 -9 -23 -18 -40 -11 -33 15 4 16 3 17 -17 4
-33 -22 -162 -40 -172 -23 -3 4 -10 5 -16 2 -23 -14 -144 -9 -193 8 -27 10
-50 18 -51 18 -1 0 0 -18 1 -40 1 -22 -2 -40 -6 -40 -5 0 -9 -12 -9 -26 0 -19
4 -25 15 -21 8 4 17 1 21 -4 3 -6 15 -9 25 -6 11 3 17 1 13 -4 -3 -5 0 -9 5
-9 6 0 11 -7 11 -15 0 -8 -5 -15 -11 -15 -5 0 -7 -4 -4 -10 3 -5 1 -10 -4 -10
-6 0 -11 6 -11 13 0 8 -15 14 -37 15 -35 3 -64 23 -43 30 5 2 6 10 3 18 -4 12
-8 12 -19 -3 -13 -17 -13 -16 -10 6 1 14 8 27 15 29 6 2 16 12 21 23 8 15 7
19 -4 19 -10 0 -13 -6 -10 -15 4 -8 2 -15 -3 -15 -13 0 -12 33 1 42 6 4 -1 8
-16 8 -33 0 -47 -19 -25 -35 21 -15 22 -36 2 -29 -8 4 -15 2 -15 -4 0 -6 6
-13 13 -15 6 -3 2 -6 -11 -6 -13 -1 -20 3 -17 9 3 5 -1 24 -10 41 -9 17 -12
28 -6 25 18 -12 12 16 -6 30 -26 19 -30 17 -30 -11 0 -15 9 -32 20 -40 13 -9
18 -18 12 -24 -6 -6 -15 -4 -23 5 -7 8 -9 14 -5 14 4 0 -11 12 -34 26 -24 14
-43 30 -43 35 0 6 4 8 8 5 5 -3 9 1 9 9 0 8 -4 15 -9 15 -13 0 -9 17 5 18 6 1
36 5 66 8 41 5 52 4 46 -5 -4 -7 -13 -10 -21 -7 -8 3 -11 0 -8 -9 6 -15 34 -9
34 7 0 5 4 6 10 3 6 -3 7 1 4 10 -6 15 -4 15 31 1 38 -16 69 -10 77 16 5 15
27 18 143 19 55 0 118 3 140 7 64 12 112 6 142 -18z m35 -177 c7 -9 6 -13 -3
-14 -10 0 -11 -2 -1 -6 15 -6 16 -39 0 -49 -7 -4 -8 -3 -4 4 4 7 2 12 -3 12
-6 0 -11 -4 -11 -10 0 -5 -5 -10 -11 -10 -5 0 -7 5 -4 10 3 6 -1 10 -11 10
-14 0 -15 -2 -3 -17 8 -10 19 -21 24 -25 6 -4 0 -8 -12 -8 -13 0 -23 6 -23 14
0 21 -23 26 -45 10 -14 -10 -15 -14 -4 -15 8 0 5 -5 -8 -11 -26 -12 -38 -38
-19 -38 7 0 19 7 26 15 15 18 34 20 24 3 -6 -10 -4 -10 7 0 7 6 17 12 21 12 5
0 8 -6 7 -12 -3 -26 1 -39 11 -33 6 3 10 1 10 -5 0 -7 -8 -9 -19 -5 -15 5 -21
-1 -27 -27 -5 -18 -8 -41 -7 -50 0 -10 -4 -18 -8 -18 -5 0 -8 16 -6 35 1 19 6
35 11 35 5 0 2 8 -5 17 -8 9 -9 14 -3 10 7 -4 18 1 25 10 13 15 11 16 -11 9
-14 -5 -38 -8 -55 -8 -16 0 -22 -3 -12 -5 14 -4 16 -8 6 -19 -9 -11 -8 -18 1
-30 11 -12 10 -18 -3 -32 -14 -13 -19 -14 -29 -3 -11 11 -10 13 4 8 12 -4 15
-2 11 9 -6 17 -8 17 -25 2 -8 -7 -24 -19 -36 -25 -17 -11 -20 -10 -16 1 3 8 0
17 -5 21 -6 3 -8 11 -5 17 4 7 2 8 -5 4 -9 -6 -9 -11 -1 -21 8 -9 6 -14 -6
-19 -9 -3 -20 -4 -25 -1 -4 3 -19 -1 -33 -10 -24 -16 -24 -15 -19 5 4 14 8 18
13 10 5 -9 9 -9 14 -1 9 15 -21 26 -37 14 -6 -5 -18 -8 -24 -7 -7 1 -20 2 -29
3 -8 0 -12 6 -9 11 4 6 11 7 17 4 7 -5 9 2 6 20 -4 19 -1 26 10 26 13 0 12 3
-4 15 -19 14 -19 14 1 10 11 -2 27 -5 35 -8 8 -2 12 -2 8 0 -15 8 -8 25 7 19
13 -4 13 -2 5 14 -14 26 -13 29 9 23 10 -3 23 -13 27 -23 7 -13 14 -15 29 -9
19 7 19 8 -2 8 -33 1 -28 22 14 62 20 18 31 26 24 16 -8 -9 -12 -19 -10 -20 2
-1 16 -9 32 -17 15 -7 27 -20 27 -29 0 -14 -2 -14 -10 -1 -8 12 -10 11 -10 -6
0 -12 6 -21 15 -21 8 0 13 2 10 5 -7 8 15 43 24 37 5 -2 11 5 14 16 4 15 2 19
-9 15 -8 -3 -14 -3 -14 0 0 12 30 34 46 34 10 0 14 3 11 7 -4 3 4 16 18 28 13
13 21 27 17 31 -4 5 3 0 16 -10 22 -19 22 -19 23 5 1 21 2 21 6 4 3 -11 10
-26 15 -32z m336 -545 c-21 -44 -165 -198 -185 -198 -6 0 -19 -10 -27 -22 -9
-12 -16 -18 -16 -13 0 6 -6 3 -13 -7 -7 -9 -32 -26 -55 -38 -23 -12 -45 -26
-48 -31 -3 -5 -14 -9 -25 -9 -14 0 -18 -4 -13 -12 5 -9 2 -9 -9 1 -15 12 -17
11 -17 -4 0 -11 -5 -15 -15 -11 -8 3 -15 1 -15 -4 0 -6 -17 -18 -37 -28 -21
-9 -44 -23 -51 -29 -7 -7 -22 -13 -33 -13 -11 0 -17 -4 -14 -10 3 -5 -3 -10
-14 -10 -11 0 -25 -8 -30 -17 -6 -10 -11 -15 -11 -11 0 4 -13 2 -29 -3 -22 -8
-37 -6 -62 6 -49 23 -73 38 -93 58 -10 9 -23 17 -29 17 -7 1 -38 25 -69 54
-68 63 -113 144 -104 187 4 21 1 31 -9 35 -23 9 -18 23 6 17 12 -4 25 0 29 7
7 11 11 11 24 1 13 -11 16 -11 16 3 0 14 2 14 19 -1 11 -9 17 -23 14 -32 -4
-13 -3 -13 5 -2 7 9 12 10 16 2 4 -6 16 -11 27 -11 10 0 19 -5 19 -11 0 -21
26 -37 43 -27 12 6 15 5 12 -4 -9 -25 11 -37 68 -42 71 -7 82 -13 65 -34 -11
-15 -11 -15 2 -6 20 15 98 26 102 15 3 -9 110 10 148 26 8 3 19 5 24 4 5 -1
16 5 25 13 10 9 31 19 49 22 l31 6 -22 19 c-12 10 -16 18 -9 19 24 0 27 2 35
16 6 10 19 13 45 10 27 -4 30 -3 12 2 -22 7 -23 9 -7 15 11 4 15 12 11 18 -4
8 -3 9 5 5 6 -4 9 -11 6 -16 -3 -4 4 -6 16 -3 16 4 17 8 7 14 -10 7 -10 9 0 9
6 0 12 8 13 18 0 10 3 12 6 5 2 -7 11 -13 19 -13 9 0 13 4 10 9 -3 4 6 6 19 3
20 -3 24 -1 19 11 -3 10 2 20 15 27 12 6 21 8 21 5 0 -2 15 4 33 15 45 28 48
26 25 -22z"/>
<path d="M2664 3501 c10 -16 -53 -34 -123 -35 -38 0 -67 -4 -65 -8 3 -5 -9 -8
-25 -8 -40 0 -121 -22 -121 -33 0 -4 -4 -5 -10 -2 -5 3 -10 2 -10 -4 0 -6 -7
-7 -17 -4 -9 4 -14 2 -11 -3 4 -5 -5 -10 -20 -11 -14 0 -29 -8 -34 -17 -5 -9
-14 -16 -21 -16 -7 0 -20 -14 -29 -30 -16 -28 -16 -30 0 -40 9 -5 13 -10 7
-10 -5 0 -4 -4 4 -9 8 -5 16 -31 18 -63 6 -81 21 -126 53 -157 37 -35 148 -94
165 -87 7 2 17 0 23 -6 7 -7 18 -3 35 16 13 14 29 26 34 26 5 0 14 5 21 12 10
10 7 15 -10 25 -15 8 -18 12 -8 13 11 0 12 2 3 8 -17 10 -2 31 28 38 13 4 56
7 94 8 39 1 87 9 107 18 20 9 39 13 43 10 10 -11 25 21 25 55 0 25 -9 40 -46
72 -26 23 -53 41 -61 41 -8 0 -11 4 -8 10 3 6 -1 7 -9 4 -9 -3 -16 -2 -16 4 0
6 42 13 95 17 52 4 93 10 91 14 -2 3 2 12 10 19 12 11 14 10 14 -3 0 -9 5 -13
11 -9 7 4 -3 19 -27 40 -22 18 -51 45 -66 59 -15 14 -33 25 -41 25 -8 0 -28 7
-43 15 -32 16 -68 20 -60 6z"/>
<path d="M1253 1753 c-16 -21 -61 -85 -99 -143 -160 -240 -237 -341 -294 -385
-61 -47 -630 -337 -765 -390 l-80 -31 -3 -392 -2 -392 651 0 652 0 -7 58 c-3
31 -11 104 -16 162 -6 58 -16 150 -24 205 -8 55 -18 136 -21 180 -3 44 -11 97
-16 118 -18 69 -27 248 -24 472 4 228 18 337 65 499 11 38 18 71 16 73 -2 2
-17 -13 -33 -34z"/>
<path d="M2984 1765 c2 -11 11 -49 20 -85 39 -162 55 -432 37 -625 -17 -174
-52 -453 -77 -595 -8 -47 -19 -143 -24 -215 -5 -71 -13 -151 -16 -177 l-7 -48
612 0 611 0 0 438 0 439 -37 15 c-21 9 -121 53 -223 98 -102 45 -223 99 -270
120 -216 96 -271 148 -490 468 -91 134 -143 198 -136 167z"/>
</g>
</svg>
